<svg width="66" height="80" viewBox="0 0 66 80" fill="none" xmlns="http://www.w3.org/2000/svg">
<path fill-rule="evenodd" clip-rule="evenodd" d="M14.0003 0H20.667L23.3696 8.10796C27.7002 10.3104 30.667 14.8087 30.667 20C30.667 23.3815 29.4082 26.469 27.3337 28.8194L27.3337 46.6667H34.0003V53.3333H27.3337V64L20.667 80L20.6665 53.3333H14.0003V80L7.33366 64V53.3333H0.666992V46.6667H7.33366V28.8194C5.25911 26.469 4.00033 23.3815 4.00033 20C4.00033 14.8087 6.96711 10.3104 11.2977 8.10795L14.0003 0ZM20.6665 46.6666H17.8675L14.0003 46.6667V32.9133C15.0657 33.1875 16.1827 33.3333 17.3337 33.3333C18.4847 33.3333 19.6016 33.1875 20.667 32.9133L20.6665 46.6666ZM24.0003 20C24.0003 23.6819 21.0156 26.6667 17.3337 26.6667C13.6518 26.6667 10.667 23.6819 10.667 20C10.667 16.3181 13.6518 13.3333 17.3337 13.3333C21.0156 13.3333 24.0003 16.3181 24.0003 20Z" fill="#353D45"/>
<path d="M34.9856 71.687L34.9432 71.7358L37.3332 65.9999V65.354C40.0967 65.8082 43.0168 65.5219 45.7946 64.3714C53.7317 61.0837 57.5009 51.9842 54.2132 44.047C51.3941 37.2411 44.3017 33.4998 37.3332 34.6443V32.0217C38.1356 30.6884 38.8092 29.2675 39.3361 27.7774C41.1518 27.7365 42.9517 27.9203 44.6975 28.3127L47.9933 24.5125L52.0995 26.2134L51.7429 31.2309C54.4599 32.9505 56.8242 35.2705 58.6125 38.0984L63.628 37.7419L65.3288 41.8481L61.5303 45.1425C62.2654 48.4066 62.2341 51.7188 61.5288 54.8559L65.3288 58.1516L63.628 62.2577L58.6106 61.9012C56.891 64.6182 54.5711 66.9824 51.7432 68.7707L52.0996 73.7862L47.9935 75.487L44.6991 71.6885C41.4349 72.4236 38.1227 72.3923 34.9856 71.687Z" fill="#353D45"/>
</svg>
