<svg width="64" height="64" viewBox="0 0 64 64" fill="none" xmlns="http://www.w3.org/2000/svg">
<mask id="mask0" mask-type="alpha" maskUnits="userSpaceOnUse" x="24" y="24" width="16" height="16">
<path fill-rule="evenodd" clip-rule="evenodd" d="M35.5 27.5C35.5 29.433 33.933 31 32.0001 31C30.0671 31 28.5001 29.433 28.5001 27.5C28.5001 25.567 30.0671 24 32.0001 24C33.933 24 35.5 25.567 35.5 27.5ZM33.5058 27.5001C33.5058 28.3285 32.8342 29.0001 32.0058 29.0001C31.1774 29.0001 30.5058 28.3285 30.5058 27.5001C30.5058 26.6716 31.1774 26.0001 32.0058 26.0001C32.8342 26.0001 33.5058 26.6716 33.5058 27.5001ZM32 32.0001C28.6863 32.0001 26.0001 34.4625 26 37.5H28C28.0001 35.567 29.7909 34.0001 32 34.0001C34.2091 34.0001 36 35.567 36 37.5H38C37.9999 34.4625 35.3137 32.0001 32 32.0001ZM26 37.5H28L28 40H26V37.5ZM38 37.5H36L36 40H38V37.5Z" fill="#F251B7"/>
</mask>
<g mask="url(#mask0)">
<rect x="16" y="16" width="32" height="32" fill="#353D45"/>
</g>
</svg>
