<svg width="32" height="32" viewBox="0 0 32 32" fill="none" xmlns="http://www.w3.org/2000/svg">
<path d="M32 32C27.1221 29.8095 21.7022 28.5674 16.0113 28.5674C10.2978 28.5674 4.87791 29.7869 0 32V0H32V32Z" fill="#141E8C"/>
<path d="M3.83935 9.68811C2.32629 9.68811 2.21337 11.2012 2.21337 11.2012H1.49072V8.94287H7.09129C7.09129 8.94287 7.13645 10.6818 5.4879 12.5336C5.4879 12.5336 3.90709 14.3628 3.86193 15.1758H4.76524C6.07505 15.1758 6.21055 13.6627 6.21055 13.6627H6.95579V15.921H1.21973C1.21973 15.921 1.01648 14.2047 3.00378 12.1271C3.00378 12.1271 4.22326 10.7721 4.51683 9.68811H3.83935Z" fill="white"/>
<path d="M18.0893 15.921V15.1758H17.9087C17.5925 15.1758 17.3441 14.9273 17.3441 14.6112V10.2527C17.3441 9.93652 17.5925 9.68811 17.9087 9.68811H18.0893V8.94287H14.3857V9.68811H14.5664C14.8826 9.68811 15.131 9.93652 15.131 10.2527V14.6112C15.131 14.9273 14.8826 15.1758 14.5664 15.1758H14.3857V15.921H18.0893Z" fill="white"/>
<path d="M13.6179 15.9214V13.6631H12.8727C12.8727 13.6631 12.7372 15.1987 11.4274 15.1987H10.6821V12.8275H10.9531C11.2693 12.8275 11.5177 13.0759 11.5177 13.3921V13.6631H12.2629V11.2241H11.5177V11.5177C11.5177 11.8339 11.2693 12.0823 10.9531 12.0823H10.6821V9.71106H11.4274C12.7372 9.71106 12.8727 11.2241 12.8727 11.2241H13.6179V8.96582H7.70117V9.71106H7.88184C8.198 9.71106 8.44641 9.95947 8.44641 10.2756V14.6341C8.44641 14.9503 8.198 15.1987 7.88184 15.1987H7.70117V15.9439L13.6179 15.9214Z" fill="white"/>
<path d="M21.9959 9.68811C23.509 9.68811 23.6219 11.2012 23.6219 11.2012H24.3446V8.94287H18.9924C18.9924 8.94287 18.1568 10.0494 20.3474 12.5336C20.3474 12.5336 21.9282 14.3628 21.9508 15.1758H21.0475C19.7377 15.1758 19.6022 13.6627 19.6022 13.6627H18.8569V15.921H24.2542C24.2542 15.921 25.2253 14.8596 22.8089 12.1271C22.8089 12.1271 21.5443 10.8173 21.2959 9.68811H21.9959Z" fill="white"/>
<path d="M28.2512 9.68811C29.7417 9.68811 29.8772 11.2012 29.8772 11.2012H30.5999V8.94287H25.2477C25.2477 8.94287 24.3895 10.0494 26.6027 12.5336C26.6027 12.5336 28.1835 14.3628 28.2061 15.1758H27.3027C25.9929 15.1758 25.8574 13.6627 25.8574 13.6627H25.1122V15.921H30.5095C30.5095 15.921 31.4806 14.8596 29.0642 12.1271C29.0642 12.1271 27.7996 10.8173 27.5512 9.68811H28.2512Z" fill="white"/>
</svg>
